<svg width="20" height="20" viewBox="0 0 20 20" fill="none" xmlns="http://www.w3.org/2000/svg">
<path d="M1 10C1 14.9707 5.0293 19 10 19C14.9707 19 19 14.9707 19 10C19 5.0293 14.9707 1 10 1C5.0293 1 1 5.0293 1 10Z" stroke="#02132F" stroke-width="1.5" stroke-linecap="round" stroke-linejoin="round"/>
<path d="M10.8999 1.04498C10.8999 1.04498 13.5999 4.59998 13.5999 9.99998C13.5999 15.4 10.8999 18.955 10.8999 18.955M9.09989 18.955C9.09989 18.955 6.39989 15.4 6.39989 9.99998C6.39989 4.59998 9.09989 1.04498 9.09989 1.04498M1.56689 13.15H18.4329M1.56689 6.84998H18.4329" stroke="#02132F" stroke-width="1.5" stroke-linecap="round" stroke-linejoin="round"/>
</svg>
