<svg width="13" height="13" viewBox="0 0 13 13" fill="none" xmlns="http://www.w3.org/2000/svg">
<path d="M5.28125 1.9697H7.71875C7.71875 1.65626 7.59035 1.35566 7.36179 1.13403C7.13323 0.912391 6.82323 0.787879 6.5 0.787879C6.17677 0.787879 5.86677 0.912391 5.63821 1.13403C5.40965 1.35566 5.28125 1.65626 5.28125 1.9697ZM4.46875 1.9697C4.46875 1.4473 4.68276 0.946301 5.06369 0.576911C5.44462 0.207521 5.96128 0 6.5 0C7.03872 0 7.55538 0.207521 7.93631 0.576911C8.31724 0.946301 8.53125 1.4473 8.53125 1.9697H12.5938C12.7015 1.9697 12.8048 2.0112 12.881 2.08508C12.9572 2.15896 13 2.25916 13 2.36364C13 2.46812 12.9572 2.56832 12.881 2.64219C12.8048 2.71607 12.7015 2.75758 12.5938 2.75758H11.7374L10.7672 10.9074C10.6987 11.4835 10.4141 12.015 9.96764 12.4009C9.52119 12.7867 8.94404 13 8.346 13H4.654C4.05596 13 3.47881 12.7867 3.03236 12.4009C2.58591 12.015 2.30133 11.4835 2.23275 10.9074L1.26262 2.75758H0.40625C0.298506 2.75758 0.195175 2.71607 0.118988 2.64219C0.0428013 2.56832 0 2.46812 0 2.36364C0 2.25916 0.0428013 2.15896 0.118988 2.08508C0.195175 2.0112 0.298506 1.9697 0.40625 1.9697H4.46875ZM3.03956 10.8176C3.08541 11.2016 3.27522 11.5559 3.5729 11.813C3.87058 12.0701 4.25535 12.2122 4.654 12.2121H8.346C8.74466 12.2122 9.12942 12.0701 9.4271 11.813C9.72478 11.5559 9.91459 11.2016 9.96044 10.8176L10.9192 2.75758H2.08081L3.03956 10.8176ZM5.28125 4.72727C5.38899 4.72727 5.49233 4.76878 5.56851 4.84266C5.6447 4.91653 5.6875 5.01673 5.6875 5.12121V9.84849C5.6875 9.95296 5.6447 10.0532 5.56851 10.127C5.49233 10.2009 5.38899 10.2424 5.28125 10.2424C5.17351 10.2424 5.07017 10.2009 4.99399 10.127C4.9178 10.0532 4.875 9.95296 4.875 9.84849V5.12121C4.875 5.01673 4.9178 4.91653 4.99399 4.84266C5.07017 4.76878 5.17351 4.72727 5.28125 4.72727ZM8.125 5.12121C8.125 5.01673 8.0822 4.91653 8.00601 4.84266C7.92983 4.76878 7.82649 4.72727 7.71875 4.72727C7.61101 4.72727 7.50767 4.76878 7.43149 4.84266C7.3553 4.91653 7.3125 5.01673 7.3125 5.12121V9.84849C7.3125 9.95296 7.3553 10.0532 7.43149 10.127C7.50767 10.2009 7.61101 10.2424 7.71875 10.2424C7.82649 10.2424 7.92983 10.2009 8.00601 10.127C8.0822 10.0532 8.125 9.95296 8.125 9.84849V5.12121Z" fill="#5D5D5D"/>
</svg>
