<svg width="30" height="25" viewBox="0 0 30 25" fill="none" xmlns="http://www.w3.org/2000/svg">
<path d="M27.1875 4.16667H15.9375L12.1875 0H2.8125C2.06658 0 1.35121 0.32924 0.823762 0.915291C0.296316 1.50134 0 2.2962 0 3.125L0 21.875C0 22.7038 0.296316 23.4987 0.823762 24.0847C1.35121 24.6708 2.06658 25 2.8125 25H27.1875C27.9334 25 28.6488 24.6708 29.1762 24.0847C29.7037 23.4987 30 22.7038 30 21.875V7.29167C30 6.46286 29.7037 5.66801 29.1762 5.08196C28.6488 4.49591 27.9334 4.16667 27.1875 4.16667ZM21.0645 15.1042C21.0645 15.3804 20.9657 15.6454 20.7899 15.8407C20.6141 16.0361 20.3756 16.1458 20.127 16.1458H16.377V20.3125C16.377 20.5888 16.2782 20.8537 16.1024 21.0491C15.9266 21.2444 15.6881 21.3542 15.4395 21.3542H14.502C14.2533 21.3542 14.0149 21.2444 13.839 21.0491C13.6632 20.8537 13.5645 20.5888 13.5645 20.3125V16.1458H9.81445C9.56581 16.1458 9.32736 16.0361 9.15154 15.8407C8.97573 15.6454 8.87695 15.3804 8.87695 15.1042V14.0625C8.87695 13.7862 8.97573 13.5213 9.15154 13.3259C9.32736 13.1306 9.56581 13.0208 9.81445 13.0208H13.5645V8.85417C13.5645 8.5779 13.6632 8.31295 13.839 8.1176C14.0149 7.92225 14.2533 7.8125 14.502 7.8125H15.4395C15.6881 7.8125 15.9266 7.92225 16.1024 8.1176C16.2782 8.31295 16.377 8.5779 16.377 8.85417V13.0208H20.127C20.3756 13.0208 20.6141 13.1306 20.7899 13.3259C20.9657 13.5213 21.0645 13.7862 21.0645 14.0625V15.1042Z" fill="url(#paint0_linear_856_1470)"/>
<defs>
<linearGradient id="paint0_linear_856_1470" x1="15" y1="0" x2="15" y2="25" gradientUnits="userSpaceOnUse">
<stop stop-color="#038791"/>
<stop offset="1" stop-color="#03BC99"/>
</linearGradient>
</defs>
</svg>
