<svg width="10" height="10" viewBox="0 0 10 10" fill="none" xmlns="http://www.w3.org/2000/svg">
<path d="M9.48813 0.578097C9.31715 0.398316 9.11193 0.254564 8.88455 0.155307C8.65716 0.0560496 8.41221 0.00329479 8.16413 0.000149461C7.91604 -0.00299587 7.66983 0.0435319 7.44001 0.136992C7.21018 0.230452 7.00138 0.368956 6.8259 0.544344L0.965742 6.4042C0.760912 6.60896 0.618673 6.86784 0.555687 7.15052L0.00748895 9.61947C-0.00395025 9.67078 -0.00226184 9.72414 0.0123978 9.77462C0.0270574 9.82511 0.0542144 9.87108 0.0913561 9.90828C0.128498 9.94548 0.174424 9.97271 0.224884 9.98746C0.275345 10.0022 0.328709 10.004 0.380039 9.99262L2.83474 9.44695C3.12693 9.38191 3.39451 9.2349 3.60609 9.02317L9.45562 3.17394C9.79849 2.83093 9.99378 2.36756 9.99985 1.88263C10.0059 1.39769 9.8223 0.929577 9.48813 0.578097ZM7.26783 0.986256C7.38217 0.870275 7.51832 0.778062 7.66846 0.714931C7.81859 0.651799 7.97973 0.618997 8.14259 0.618413C8.30546 0.617829 8.46683 0.649476 8.61741 0.711529C8.76799 0.773583 8.90481 0.864817 9.01997 0.979975C9.13514 1.09513 9.22637 1.23194 9.28843 1.38251C9.35049 1.53309 9.38214 1.69445 9.38155 1.85731C9.38097 2.02016 9.34816 2.1813 9.28503 2.33142C9.22189 2.48155 9.12968 2.6177 9.01369 2.73203L8.59426 3.15143L6.8484 1.40629L7.26783 0.986256ZM6.40647 1.84883L8.15232 3.59397L3.16416 8.58188C3.03661 8.7096 2.87528 8.79828 2.6991 8.83753L0.723835 9.27632L1.16639 7.28678C1.20327 7.11989 1.28703 6.96737 1.40768 6.84674L6.40647 1.84883Z" fill="#5D5D5D"/>
</svg>
