<svg width="22" height="21" viewBox="0 0 22 21" fill="none" xmlns="http://www.w3.org/2000/svg">
<path d="M4.20996 0C2.80427 0 1.50338 0.751393 0.800532 1.96875C0.44911 2.57742 0.272461 3.25747 0.272461 3.9375V17.0625C0.272461 17.7425 0.449123 18.4225 0.800532 19.0312C1.50338 20.2486 2.80427 21 4.20996 21H17.335V19.6875H4.20996C3.27109 19.6875 2.40559 19.1881 1.93616 18.375C1.46672 17.5619 1.46672 16.5631 1.93616 15.75C2.40559 14.9369 3.27109 14.4375 4.20996 14.4375H5.52246V5.25H18.6475V15.75H19.96V3.9375H5.52246V0H4.20996ZM4.20996 1.3125V3.9375V5.25V13.125C3.22526 13.125 2.29725 13.5008 1.58496 14.1401V3.9375C1.58496 3.48452 1.70143 3.03155 1.93616 2.625C2.40559 1.81191 3.27109 1.3125 4.20996 1.3125Z" fill="#979797"/>
<path d="M12.085 6.5625C9.18546 6.5625 6.83496 8.913 6.83496 11.8125C6.83496 14.7119 9.18546 17.0625 12.085 17.0625C13.2497 17.0601 14.3805 16.6706 15.2995 15.9551L20.3445 21L21.2725 20.0721L16.2301 15.0297C16.9453 14.1096 17.3339 12.9777 17.335 11.8125C17.335 8.913 14.9844 6.5625 12.085 6.5625ZM12.085 7.875C14.2596 7.875 16.0225 9.63782 16.0225 11.8125C16.0225 13.9872 14.2596 15.75 12.085 15.75C9.91028 15.75 8.14746 13.9872 8.14746 11.8125C8.14746 9.63782 9.91028 7.875 12.085 7.875Z" fill="#979797"/>
</svg>
