<svg width="20" height="21" viewBox="0 0 20 21" fill="none" xmlns="http://www.w3.org/2000/svg">
<path d="M17.1667 13.71V19C17.1667 19.8284 16.4951 20.5 15.6667 20.5H12.1667V16.102C12.1667 15.2736 11.4951 14.602 10.6667 14.602H9.33333C8.5049 14.602 7.83333 15.2736 7.83333 16.102V20.5H4.33333C3.50491 20.5 2.83333 19.8284 2.83333 19V13.71C2.83333 13.4024 2.58399 13.1531 2.27642 13.1531H2.25219C1.28448 13.1531 0.5 12.3686 0.5 11.4009C0.5 10.951 0.673072 10.5183 0.983362 10.1925L8.92156 1.85737C9.5105 1.23898 10.4961 1.23633 11.0884 1.85155L18.9892 10.0587C19.3169 10.3991 19.5 10.8533 19.5 11.3259V11.3766C19.5 12.3577 18.7047 13.1531 17.7236 13.1531C17.416 13.1531 17.1667 13.4024 17.1667 13.71Z" stroke="#979797"/>
</svg>
