<svg width="16" height="21" viewBox="0 0 16 21" fill="none" xmlns="http://www.w3.org/2000/svg">
<path d="M8 13.2632C9.89714 13.2632 11.4171 11.7821 11.4171 9.94737L11.4286 3.31579C11.4286 1.48105 9.89714 0 8 0C6.10286 0 4.57143 1.48105 4.57143 3.31579V9.94737C4.57143 11.7821 6.10286 13.2632 8 13.2632ZM6.62857 3.20526C6.62857 2.47579 7.24571 1.87895 8 1.87895C8.75429 1.87895 9.37143 2.47579 9.37143 3.20526L9.36 10.0579C9.36 10.7874 8.75429 11.3842 8 11.3842C7.24571 11.3842 6.62857 10.7874 6.62857 10.0579V3.20526ZM14.0571 9.94737C14.0571 13.2632 11.1543 15.5842 8 15.5842C4.84571 15.5842 1.94286 13.2632 1.94286 9.94737H0C0 13.7163 3.10857 16.8332 6.85714 17.3747V21H9.14286V17.3747C12.8914 16.8442 16 13.7274 16 9.94737H14.0571Z" fill="#F86B6B"/>
</svg>
