<svg width="21" height="21" viewBox="0 0 21 21" fill="none" xmlns="http://www.w3.org/2000/svg">
<path d="M10.4904 14.3608C8.47046 14.3608 6.83105 12.6298 6.83105 10.497C6.83105 8.36425 8.47046 6.6333 10.4904 6.6333C12.5104 6.6333 14.1498 8.36425 14.1498 10.497C14.1498 12.6298 12.5104 14.3608 10.4904 14.3608ZM10.4904 8.17879C9.2804 8.17879 8.29481 9.21942 8.29481 10.497C8.29481 11.7746 9.2804 12.8153 10.4904 12.8153C11.7005 12.8153 12.6861 11.7746 12.6861 10.497C12.6861 9.21942 11.7005 8.17879 10.4904 8.17879Z" fill="#979797"/>
<path d="M13.6227 20.9958C13.4178 20.9958 13.2128 20.9649 13.0079 20.9134C12.4029 20.7382 11.8954 20.3364 11.5734 19.7697L11.4563 19.5636C10.8806 18.5127 10.0901 18.5127 9.5144 19.5636L9.40706 19.7594C9.08504 20.3364 8.5776 20.7485 7.97258 20.9134C7.35781 21.0885 6.72351 20.9958 6.1868 20.6558L4.50836 19.6358C3.9131 19.2752 3.48374 18.6879 3.29833 17.9769C3.12268 17.266 3.2105 16.5345 3.55204 15.906C3.83504 15.3805 3.9131 14.9066 3.74721 14.6078C3.58132 14.309 3.16171 14.1338 2.58597 14.1338C1.16125 14.1338 0 12.9077 0 11.4034V9.59007C0 8.08579 1.16125 6.8597 2.58597 6.8597C3.16171 6.8597 3.58132 6.68455 3.74721 6.38575C3.9131 6.08696 3.8448 5.61301 3.55204 5.08754C3.2105 4.45904 3.12268 3.7172 3.29833 3.01658C3.47398 2.30565 3.90335 1.71837 4.50836 1.35775L6.19656 0.337727C7.29926 -0.352592 8.75325 0.0492356 9.41682 1.23411L9.53392 1.44018C10.1097 2.49111 10.9001 2.49111 11.4758 1.44018L11.5832 1.24442C12.2467 0.0492356 13.7007 -0.352592 14.8132 0.348031L16.4916 1.36806C17.0869 1.72867 17.5163 2.31596 17.7017 3.02688C17.8773 3.73781 17.7895 4.46934 17.448 5.09784C17.165 5.62331 17.0869 6.09726 17.2528 6.39605C17.4187 6.69485 17.8383 6.87001 18.414 6.87001C19.8388 6.87001 21 8.09609 21 9.60037V11.4137C21 12.918 19.8388 14.1441 18.414 14.1441C17.8383 14.1441 17.4187 14.3193 17.2528 14.6181C17.0869 14.9169 17.1552 15.3908 17.448 15.9163C17.7895 16.5448 17.8871 17.2866 17.7017 17.9872C17.526 18.6982 17.0967 19.2855 16.4916 19.6461L14.8034 20.6661C14.4326 20.8825 14.0325 20.9958 13.6227 20.9958ZM10.4902 17.1836C11.3587 17.1836 12.1687 17.7606 12.7249 18.7806L12.8322 18.9764C12.9493 19.1927 13.1445 19.3473 13.3787 19.4091C13.6129 19.4709 13.8471 19.44 14.0423 19.3164L15.7305 18.286C15.9842 18.1315 16.1794 17.8739 16.2574 17.5648C16.3355 17.2557 16.2965 16.9363 16.1501 16.6684C15.5939 15.6587 15.5256 14.6181 15.9549 13.8247C16.3843 13.0314 17.2723 12.578 18.3848 12.578C19.0093 12.578 19.507 12.0526 19.507 11.3931V9.57977C19.507 8.93066 19.0093 8.39489 18.3848 8.39489C17.2723 8.39489 16.3843 7.94155 15.9549 7.14819C15.5256 6.35484 15.5939 5.31421 16.1501 4.30449C16.2965 4.0366 16.3355 3.7172 16.2574 3.4081C16.1794 3.09901 15.994 2.85173 15.7402 2.68687L14.052 1.66685C13.6324 1.39896 13.0762 1.55351 12.8225 2.00686L12.7151 2.20262C12.1589 3.22264 11.349 3.79963 10.4805 3.79963C9.61199 3.79963 8.80204 3.22264 8.24582 2.20262L8.13848 1.99655C7.89452 1.56382 7.34805 1.40927 6.92844 1.66685L5.24024 2.69718C4.98652 2.85173 4.79136 3.10931 4.71329 3.41841C4.63522 3.72751 4.67426 4.04691 4.82063 4.31479C5.37686 5.32451 5.44517 6.36514 5.0158 7.1585C4.58643 7.95185 3.69842 8.40519 2.58597 8.40519C1.96143 8.40519 1.46375 8.93066 1.46375 9.59007V11.4034C1.46375 12.0526 1.96143 12.5883 2.58597 12.5883C3.69842 12.5883 4.58643 13.0417 5.0158 13.835C5.44517 14.6284 5.37686 15.669 4.82063 16.6787C4.67426 16.9466 4.63522 17.266 4.71329 17.5751C4.79136 17.8842 4.97677 18.1315 5.23048 18.2963L6.91868 19.3164C7.12361 19.4503 7.36756 19.4812 7.59201 19.4194C7.82621 19.3576 8.02138 19.1927 8.14823 18.9764L8.25558 18.7806C8.8118 17.7709 9.62175 17.1836 10.4902 17.1836Z" fill="#979797"/>
</svg>
