<svg width="25" height="25" viewBox="0 0 25 25" fill="none" xmlns="http://www.w3.org/2000/svg">
<path d="M20.1865 5.5L20.1871 5.5C20.7779 5.49931 21.3623 5.61688 21.904 5.8451C22.4456 6.07332 22.9327 6.40714 23.3355 6.8253C23.7382 7.24342 24.0481 7.73696 24.2466 8.2751C24.4452 8.81322 24.5284 9.38495 24.4915 9.95514L24.4914 9.95531L23.8253 20.2802C23.747 21.4917 23.3798 22.5367 22.6711 23.2758C21.9707 24.0063 20.8769 24.5 19.2129 24.5H5.78769C4.12351 24.5 3.02641 24.0062 2.32435 23.2755C1.61448 22.5366 1.24768 21.4923 1.17548 20.2827L1.17532 20.2803L0.509186 9.95531L0.509123 9.95436C0.349871 7.55685 2.30928 5.5 4.8141 5.5C5.781 5.5 6.66792 4.95995 7.11314 4.12213L7.1132 4.12216L7.11722 4.11427L8.03791 2.30499C8.03818 2.30448 8.03845 2.30396 8.03871 2.30345C8.28148 1.83577 8.73803 1.37964 9.30179 1.03883C9.86563 0.697969 10.4913 0.5 11.0399 0.5H13.9735C14.515 0.5 15.1372 0.697463 15.6999 1.03853C16.2624 1.37942 16.7191 1.83563 16.9619 2.30336C16.9622 2.30391 16.9624 2.30445 16.9627 2.30499L17.8834 4.11427L17.8833 4.1143L17.8875 4.12213C18.3327 4.95995 19.2196 5.5 20.1865 5.5ZM0.0104735 9.98748L0.0102227 9.9875L0.0104735 9.98748ZM14.4219 6.0625H10.5788C9.78903 6.0625 9.11798 6.69987 9.11798 7.5C9.11798 8.30013 9.78903 8.9375 10.5788 8.9375H14.4219C15.2116 8.9375 15.8826 8.30013 15.8826 7.5C15.8826 6.69987 15.2116 6.0625 14.4219 6.0625ZM7.67041 15.925C7.67041 18.5511 9.85405 20.65 12.5003 20.65C15.1466 20.65 17.3302 18.5511 17.3302 15.925C17.3302 13.2999 15.1604 11.2 12.5003 11.2C9.84027 11.2 7.67041 13.2999 7.67041 15.925Z" fill="url(#paint0_linear_856_1469)" stroke="url(#paint1_linear_856_1469)"/>
<defs>
<linearGradient id="paint0_linear_856_1469" x1="12.5" y1="0" x2="12.5" y2="25" gradientUnits="userSpaceOnUse">
<stop stop-color="#038791"/>
<stop offset="1" stop-color="#03BC99"/>
</linearGradient>
<linearGradient id="paint1_linear_856_1469" x1="12.5" y1="0" x2="12.5" y2="25" gradientUnits="userSpaceOnUse">
<stop stop-color="#038791"/>
<stop offset="1" stop-color="#03BC99"/>
</linearGradient>
</defs>
</svg>
