<svg width="15" height="18" viewBox="0 0 15 18" fill="none" xmlns="http://www.w3.org/2000/svg">
<path d="M7.39835 1.77148C4.76615 1.77148 2.627 3.91064 2.627 6.54283V8.84103C2.627 9.32611 2.42024 10.0657 2.17372 10.4792L1.25922 11.9981C0.694608 12.9364 1.08427 13.9782 2.11806 14.3281C5.54547 15.4732 9.24326 15.4732 12.6707 14.3281C13.6329 14.01 14.0544 12.8728 13.5295 11.9981L12.615 10.4792C12.3764 10.0657 12.1697 9.32611 12.1697 8.84103V6.54283C12.1697 3.91859 10.0226 1.77148 7.39835 1.77148Z" stroke="#5B5B5B" stroke-width="1.5" stroke-miterlimit="10" stroke-linecap="round"/>
<path d="M8.87006 2.00198C7.90841 1.7281 6.88939 1.7281 5.92773 2.00198C6.15835 1.41352 6.73091 1 7.3989 1C8.06689 1 8.63945 1.41352 8.87006 2.00198Z" stroke="#5B5B5B" stroke-width="1.5" stroke-miterlimit="10" stroke-linecap="round" stroke-linejoin="round"/>
<path d="M9.78306 14.6143C9.78306 15.9264 8.70951 16.9999 7.39739 16.9999C6.74531 16.9999 6.14094 16.7296 5.71152 16.3001C5.26472 15.8527 5.01315 15.2466 5.01172 14.6143" stroke="#5B5B5B" stroke-width="1.5" stroke-miterlimit="10"/>
</svg>
