<svg width="23" height="23" viewBox="0 0 23 23" fill="none" xmlns="http://www.w3.org/2000/svg">
<path d="M12.8269 17.25C12.8269 17.5124 12.7491 17.769 12.6033 17.9872C12.4575 18.2054 12.2503 18.3755 12.0078 18.4759C11.7653 18.5763 11.4985 18.6026 11.2411 18.5514C10.9837 18.5002 10.7473 18.3738 10.5617 18.1883C10.3762 18.0027 10.2498 17.7663 10.1986 17.5089C10.1474 17.2515 10.1737 16.9847 10.2741 16.7422C10.3745 16.4997 10.5446 16.2925 10.7628 16.1467C10.981 16.0009 11.2376 15.9231 11.5 15.9231C11.8519 15.9231 12.1894 16.0629 12.4383 16.3117C12.6871 16.5606 12.8269 16.8981 12.8269 17.25ZM11.5 5.30769C9.06068 5.30769 7.07693 7.09351 7.07693 9.28846V9.73077C7.07693 9.96538 7.17013 10.1904 7.33602 10.3563C7.50192 10.5222 7.72693 10.6154 7.96154 10.6154C8.19616 10.6154 8.42116 10.5222 8.58706 10.3563C8.75296 10.1904 8.84616 9.96538 8.84616 9.73077V9.28846C8.84616 8.07211 10.0371 7.07692 11.5 7.07692C12.9629 7.07692 14.1538 8.07211 14.1538 9.28846C14.1538 10.5048 12.9629 11.5 11.5 11.5C11.2654 11.5 11.0404 11.5932 10.8745 11.7591C10.7086 11.925 10.6154 12.15 10.6154 12.3846V13.2692C10.6154 13.5038 10.7086 13.7288 10.8745 13.8947C11.0404 14.0606 11.2654 14.1538 11.5 14.1538C11.7346 14.1538 11.9596 14.0606 12.1255 13.8947C12.2914 13.7288 12.3846 13.5038 12.3846 13.2692V13.1896C14.4015 12.8192 15.9231 11.2103 15.9231 9.28846C15.9231 7.09351 13.9393 5.30769 11.5 5.30769ZM23 11.5C23 13.7745 22.3255 15.9979 21.0619 17.8891C19.7983 19.7802 18.0022 21.2542 15.9009 22.1246C13.7995 22.995 11.4872 23.2228 9.25646 22.779C7.02568 22.3353 4.97658 21.24 3.36828 19.6317C1.75997 18.0234 0.664704 15.9743 0.220974 13.7435C-0.222756 11.5128 0.00498277 9.20049 0.87539 7.09914C1.7458 4.99779 3.21978 3.20174 5.11095 1.9381C7.00211 0.674463 9.22552 0 11.5 0C14.549 0.0032198 17.4722 1.21586 19.6282 3.37183C21.7841 5.5278 22.9968 8.451 23 11.5ZM21.2308 11.5C21.2308 9.57543 20.6601 7.69409 19.5908 6.09387C18.5216 4.49366 17.0019 3.24644 15.2238 2.50994C13.4457 1.77344 11.4892 1.58074 9.60162 1.9562C7.71404 2.33167 5.98018 3.25843 4.61931 4.61931C3.25844 5.98018 2.33167 7.71404 1.95621 9.60162C1.58075 11.4892 1.77345 13.4457 2.50995 15.2238C3.24644 17.0019 4.49366 18.5216 6.09388 19.5908C7.69409 20.6601 9.57544 21.2308 11.5 21.2308C14.0799 21.2278 16.5532 20.2017 18.3775 18.3775C20.2017 16.5532 21.2278 14.0799 21.2308 11.5Z" fill="white"/>
</svg>
