<svg width="18" height="18" viewBox="0 0 18 18" fill="none" xmlns="http://www.w3.org/2000/svg">
<path fill-rule="evenodd" clip-rule="evenodd" d="M17.25 8.625C17.25 13.3885 13.3885 17.25 8.625 17.25C3.86154 17.25 0 13.3885 0 8.625C0 3.86154 3.86154 0 8.625 0C13.3885 0 17.25 3.86154 17.25 8.625ZM4.08456 13.1654C3.69404 12.7749 3.69404 12.1418 4.08456 11.7512L7.21079 8.625L4.08456 5.49877C3.69403 5.10825 3.69404 4.47508 4.08456 4.08456C4.47508 3.69404 5.10825 3.69403 5.49877 4.08456L8.625 7.21079L11.7512 4.08456C12.1418 3.69404 12.7749 3.69404 13.1654 4.08456C13.556 4.47508 13.556 5.10825 13.1654 5.49877L10.0392 8.625L13.1654 11.7512C13.556 12.1418 13.556 12.7749 13.1654 13.1654C12.7749 13.556 12.1418 13.556 11.7512 13.1654L8.625 10.0392L5.49877 13.1654C5.10825 13.556 4.47508 13.556 4.08456 13.1654Z" fill="#ED5656"/>
</svg>
