<svg width="21" height="21" viewBox="0 0 21 21" fill="none" xmlns="http://www.w3.org/2000/svg">
<path d="M20.0818 11.5618C20.2974 11.4537 20.4788 11.2878 20.6055 11.0825C20.7322 10.8773 20.7993 10.6408 20.7993 10.3996C20.7993 10.1584 20.7322 9.92194 20.6055 9.71669C20.4788 9.51144 20.2974 9.34549 20.0818 9.23741L1.88181 0.137412C1.65614 0.0244994 1.40249 -0.0202975 1.1518 0.00848619C0.901113 0.0372699 0.664219 0.13839 0.470019 0.299511C0.27582 0.460632 0.13271 0.674789 0.0581458 0.915858C-0.0164183 1.15693 -0.0192125 1.41448 0.0501046 1.65711L1.9078 8.15711C1.98551 8.42878 2.14961 8.66773 2.37527 8.8378C2.60092 9.00786 2.87584 9.09977 3.1584 9.09961L9.1007 9.09961C9.44549 9.09961 9.77615 9.23658 10.0199 9.48037C10.2637 9.72417 10.4007 10.0548 10.4007 10.3996C10.4007 10.7444 10.2637 11.0751 10.0199 11.3189C9.77615 11.5626 9.44549 11.6996 9.1007 11.6996L3.1584 11.6996C2.87584 11.6995 2.60092 11.7914 2.37527 11.9614C2.14961 12.1315 1.98551 12.3704 1.9078 12.6421L0.0514039 19.1421C-0.0180506 19.3847 -0.0154236 19.6422 0.0589641 19.8833C0.133352 20.1244 0.276286 20.3386 0.470334 20.4998C0.664383 20.6611 0.901158 20.7624 1.15179 20.7914C1.40242 20.8204 1.65607 20.7758 1.88181 20.6631L20.0818 11.5631V11.5618Z" fill="#A8A8A8"/>
</svg>
