<svg width="134" height="136" viewBox="0 0 134 136" fill="none" xmlns="http://www.w3.org/2000/svg">
<path d="M133.931 130.753L124.767 78.0101H127.862C130.352 78.0101 132.358 76.0081 132.358 73.5228V40.3858C132.358 37.9005 130.352 35.8985 127.862 35.8985H85.3278V4.48731C85.3278 2.00203 83.3221 0 80.8323 0H53.1678C50.678 0 48.6723 2.00203 48.6723 4.48731V35.8985H6.13807C3.64826 35.8985 1.64258 37.9005 1.64258 40.3858V73.5228C1.64258 76.0081 3.64826 78.0101 6.13807 78.0101H9.23304L0.0691616 130.753C0.0172906 131.012 0 131.271 0 131.513C0 133.998 2.00568 136 4.49549 136H129.505C129.764 136 130.023 135.983 130.265 135.931C132.721 135.517 134.363 133.187 133.931 130.753ZM13.7458 47.9797H60.7755V12.0812H73.2246V47.9797H120.254V65.9289H13.7458V47.9797ZM94.6646 123.919V96.9949C94.6646 96.2355 94.0422 95.6142 93.2814 95.6142H84.982C84.2212 95.6142 83.5988 96.2355 83.5988 96.9949V123.919H50.4013V96.9949C50.4013 96.2355 49.7789 95.6142 49.0181 95.6142H40.7187C39.958 95.6142 39.3355 96.2355 39.3355 96.9949V123.919H13.5383L21.3363 79.0457H112.647L120.444 123.919H94.6646Z" fill="black"/>
</svg>
