<?xml version="1.0" encoding="UTF-8"?>
<svg id="Layer_1" data-name="Layer 1" xmlns="http://www.w3.org/2000/svg" viewBox="0 0 99.97 100">
  <defs>
    <style>
      .cls-1 {
        fill: #49fff4;
      }
    </style>
  </defs>
  <path class="cls-1" d="M99.77,45.57c-1.02-11.52-5.44-21.6-13.47-29.9C74.38,3.35,59.79-1.84,42.74,.58c-10.2,1.44-19.09,5.86-26.56,12.92C5.33,23.74,0,36.42,.01,51.34c0,6.97,0,13.94,0,20.92C.01,80.16,.03,88.07,0,95.98c0,1.65,.51,2.95,2.07,3.62,1.58,.67,2.87,.08,4.02-1.09,2.43-2.48,4.89-4.92,7.36-7.36,2.09-2.06,4.86-2.3,7.3-.69,.4,.27,.8,.55,1.21,.81,13.88,9.08,28.78,11.16,44.46,5.84,21.71-7.37,35.38-28.71,33.35-51.54Zm-23.8,2.35c-.23,.52-.57,.95-1.01,1.3-2.49,1.99-4.93,4.05-7.49,5.95-6.49,4.84-15.31,3.45-20.05-3.1-3.08-4.25-7.6-4.85-11.7-1.56-2.19,1.76-4.37,3.53-6.59,5.25-1.3,1.01-2.91,.98-4.13,.02-1.18-.92-1.6-2.56-1-3.94,.26-.58,.68-1.04,1.17-1.43,2.39-1.9,4.75-3.83,7.16-5.7,2.54-1.99,5.45-2.95,9.27-2.96,4.35,.15,8.25,2.22,11.12,6.26,2.25,3.17,5.98,4.22,9.36,2.69,.76-.35,1.43-.85,2.08-1.37,2.22-1.78,4.43-3.57,6.67-5.32,1.31-1.02,2.9-1,4.13-.03,1.18,.93,1.6,2.57,1,3.94Z"/>
</svg>