<?xml version="1.0" encoding="UTF-8"?>
<svg id="Layer_1" data-name="Layer 1" xmlns="http://www.w3.org/2000/svg" viewBox="0 0 100.01 100">
  <defs>
    <style>
      .cls-1 {
        fill: #49fff4;
      }
    </style>
  </defs>
  <path class="cls-1" d="M45.32,25.16c0,3.92,.01,7.84,0,11.76-.02,6.25-4.53,10.77-10.78,10.78-7.92,.02-15.83,.02-23.75,0C4.54,47.69,.02,43.17,.01,36.92c-.01-7.91-.01-15.83,0-23.74C.02,6.93,4.55,2.41,10.79,2.4c7.92-.01,15.83-.01,23.75,0,6.25,.01,10.76,4.53,10.78,10.78,.01,3.99,0,7.99,0,11.98Z"/>
  <path class="cls-1" d="M0,77.36c0-3.96,0-7.91,0-11.87,.02-6.26,4.52-10.79,10.76-10.8,7.92-.02,15.83-.01,23.75,0,6.26,.01,10.79,4.51,10.8,10.76,.02,7.91,.01,15.83,0,23.74-.01,6.26-4.52,10.79-10.76,10.8-7.92,.02-15.83,.01-23.75,0-6.25-.01-10.78-4.53-10.81-10.76-.01-3.96,0-7.91,0-11.87Z"/>
  <path class="cls-1" d="M97.61,77.41c0,3.92,0,7.84,0,11.76-.02,6.31-4.53,10.81-10.86,10.82-7.88,.01-15.76,.01-23.64,0-6.31-.01-10.81-4.53-10.82-10.86-.01-7.88-.01-15.76,0-23.63,.01-6.31,4.53-10.81,10.86-10.81,7.88-.01,15.76-.01,23.64,0,6.31,.01,10.8,4.52,10.82,10.86,0,3.96,0,7.91,0,11.87Z"/>
  <path class="cls-1" d="M49.94,25.07c.07-2.67,.86-5.1,2.75-7.02,5.04-5.12,10.08-10.24,15.25-15.23,3.92-3.78,10.18-3.75,14.09,.05,5.1,4.95,10.14,9.98,15.09,15.08,3.84,3.96,3.85,10.21,.02,14.18-4.97,5.14-10.03,10.19-15.17,15.16-3.85,3.72-10.06,3.79-13.93,.08-5.27-5.04-10.37-10.26-15.48-15.46-1.73-1.76-2.61-4.37-2.62-6.85Z"/>
</svg>