<?xml version="1.0" encoding="UTF-8"?>
<svg id="Layer_1" data-name="Layer 1" xmlns="http://www.w3.org/2000/svg" viewBox="0 0 77.01 100">
  <defs>
    <style>
      .cls-1 {
        fill: #49fff4;
      }
    </style>
  </defs>
  <path class="cls-1" d="M76.98,96.62c-.65-6.81-1.88-13.5-3.97-20.03-1.79-5.59-4.55-10.53-9.29-14.2-2.47-1.92-5.1-3.58-7.97-4.81-.88-.38-.99-.67-.37-1.46,3.08-3.96,4.47-8.49,4.44-13.5-.03-4.79,0-9.58,0-14.36,0-.57-.13-1.13,.46-1.6,6.11-4.81,7.78-11.6,8.21-18.87,.23-3.87-2.76-6.37-6.58-5.64-1.44,.27-2.87,.35-4.33,.35-3.78-.01-7.49-.69-11.21-1.2-5.22-.72-10.43-1.71-15.73-1.1-6.3,.72-11.11,3.53-13.06,9.98-.18,.61-.55,.83-1.03,1.1-1.97,1.12-3.46,2.71-4.43,4.76-2.63,5.57-.87,13.17,4,16.94,.83,.64,1.1,1.27,1.08,2.27-.06,2.8-.06,5.6,0,8.39,.09,4.48,1.46,8.56,4.15,12.13,.76,1.01,.87,1.36-.44,1.96-7.91,3.62-13.75,9.21-16.55,17.68-2.2,6.66-3.54,13.5-4.28,20.45-.36,3.43,.34,4.14,3.73,4.14,11.57,0,23.14,0,34.7,0s23.57,0,35.35,0c2.42,0,3.34-.97,3.11-3.38Zm-30.06-31.93c.82,4.05,1.52,8.12,2.34,12.17,.25,1.25-.07,2.2-.94,3.06-2.56,2.53-5.12,5.07-7.67,7.61-.59,.58-1.25,1.01-2.12,1.08-.83-.02-1.51-.41-2.1-1-2.59-2.58-5.19-5.15-7.79-7.72-.87-.86-1.15-1.82-.9-3.07,.85-4.26,1.58-8.54,2.42-12.81,.16-.82,.13-1.33-.78-1.55-.3-.07-.58-.27-.86-.43-1.64-.89-2.24-2.31-1.55-3.69,.7-1.4,2.19-1.8,3.88-.92,2.68,1.4,5.52,2.02,8.54,1.88,2.29-.11,4.42-.75,6.48-1.72,1.7-.81,3.19-.43,3.87,.95,.68,1.39,.13,2.91-1.6,3.63-1.32,.55-1.46,1.29-1.21,2.54Zm3.97-34.6c-1.66,.12-3.33,.02-5,.02-5.97,.21-11.77-.75-17.36-2.88-.62-.24-1.01-.24-1.58,.18-1.23,.89-2.57,.7-3.47-.33-.91-1.04-.84-2.51,.24-3.63,1.56-1.63,3.5-2.21,5.59-1.39,6.85,2.68,13.93,3.45,21.21,2.92,1.77-.13,2.96,.82,3.09,2.33,.12,1.45-.96,2.66-2.72,2.78Z"/>
  <path class="cls-1" d="M38.53,64.43c3.12,.05,3.14,.04,3.74,3.14,.54,2.79,1.03,5.59,1.59,8.37,.13,.65,.05,1.09-.45,1.56-1.44,1.37-2.86,2.76-4.22,4.2-.56,.59-.95,.54-1.4-.05-.06-.09-.15-.15-.23-.23-1.5-1.53-3.74-2.83-4.3-4.65-.56-1.82,.56-4.15,.94-6.25,.29-1.58,.63-3.16,.85-4.75,.15-1.08,.46-1.67,1.71-1.37,.56,.14,1.18,.02,1.77,.02Z"/>
</svg>