<?xml version="1.0" encoding="UTF-8"?>
<svg id="Layer_1" data-name="Layer 1" xmlns="http://www.w3.org/2000/svg" viewBox="0 0 95.98 100">
  <defs>
    <style>
      .cls-1 {
        fill: #49fff4;
      }
    </style>
  </defs>
  <path class="cls-1" d="M47.96,89.85c-3.95,0-7.89-.02-11.84,.02-.74,0-.96-.18-.94-.93,.05-2.44,0-4.89,.03-7.33,0-.66-.15-1.22-.5-1.79-2.56-4.25-5.38-8.32-8.43-12.24-3.84-4.93-5.91-10.53-5.96-16.77-.06-7.85,2.69-14.65,8.31-20.14,6.06-5.92,13.46-8.57,21.87-7.79,8.81,.81,15.86,5.01,20.65,12.47,6.52,10.15,6.03,22.01-1.11,31.74-3.13,4.27-6.23,8.56-8.99,13.09-.31,.5-.45,.99-.44,1.58,.02,2.37-.04,4.74,.03,7.11,.03,.89-.27,1.03-1.07,1.02-3.87-.04-7.74-.02-11.62-.02Z"/>
  <path class="cls-1" d="M47.93,100c-3.27,0-6.54,0-9.81,0-1.91,0-3.22-1.17-3.24-2.84-.02-1.69,1.26-2.89,3.18-2.89,6.61-.02,13.22-.02,19.84,0,1.92,0,3.2,1.21,3.18,2.89-.02,1.67-1.33,2.84-3.24,2.84-3.31,0-6.61,0-9.92,0Z"/>
  <path class="cls-1" d="M12.1,42.48c-.24-.04-.66-.07-1.04-.2-2.78-.89-5.57-1.76-8.33-2.72-2.16-.75-3.18-2.81-2.53-4.84,.65-2,2.72-3.08,4.89-2.42,2.83,.86,5.64,1.78,8.44,2.75,1.85,.64,2.92,2.51,2.57,4.25-.38,1.88-1.96,3.2-4,3.17Z"/>
  <path class="cls-1" d="M51.83,8.23c0,1.46,.02,2.93,0,4.39-.04,2.26-1.63,3.91-3.77,3.94-2.19,.03-3.85-1.63-3.88-3.94-.03-2.89-.03-5.78,0-8.67C44.19,1.66,45.89-.03,48.05,0c2.11,.03,3.73,1.71,3.77,3.95,.03,1.43,0,2.85,0,4.28Z"/>
  <path class="cls-1" d="M83.78,42.48c-1.9,0-3.39-1.2-3.83-3-.41-1.65,.4-3.57,2.04-4.2,3.14-1.21,6.35-2.26,9.61-3.12,1.73-.45,3.68,.87,4.21,2.61,.59,1.94-.32,3.99-2.27,4.69-2.92,1.05-5.9,1.95-8.86,2.9-.32,.1-.67,.09-.9,.12Z"/>
  <path class="cls-1" d="M29.74,19.88c0,1.64-.87,2.94-2.42,3.58-1.36,.56-3.06,.31-4.03-.85-2.16-2.59-4.14-5.34-5.95-8.18-1.01-1.58-.41-3.7,1.09-4.81,1.55-1.14,3.76-1.05,4.99,.46,2.12,2.58,4.03,5.31,5.89,8.09,.34,.51,.44,1.11,.43,1.72Z"/>
  <path class="cls-1" d="M70.06,23.72c-2.96-.02-4.89-3.19-3.29-5.67,1.76-2.74,3.73-5.35,5.75-7.92,1.24-1.57,3.5-1.68,5.07-.49,1.58,1.19,2.07,3.36,.95,5.02-1.77,2.6-3.66,5.13-5.54,7.65-.71,.95-1.73,1.41-2.93,1.41Z"/>
  <path class="cls-1" d="M4.36,68.42c-2.33,0-3.85-1.23-4.24-3-.38-1.71,.39-3.6,2.04-4.19,3.16-1.15,6.38-2.18,9.61-3.11,1.6-.46,3.41,.69,4.07,2.31,.69,1.68,.24,3.76-1.37,4.54-3.37,1.64-7.03,2.49-10.11,3.46Z"/>
  <path class="cls-1" d="M92.14,68.43c-.11,0-.23,0-.34-.03-3.45-.87-6.87-1.89-10.12-3.31-1.7-.75-2.26-2.95-1.53-4.68,.73-1.75,2.57-2.75,4.4-2.21,3.01,.89,6.01,1.85,8.97,2.9,1.83,.65,2.72,2.42,2.36,4.23-.37,1.82-1.92,3.11-3.75,3.11Z"/>
</svg>