<svg width="50" height="50" viewBox="0 0 50 50" fill="none" xmlns="http://www.w3.org/2000/svg">
<path d="M25 0C20.0555 0 15.222 1.46622 11.1108 4.21326C6.99952 6.96029 3.79521 10.8648 1.90302 15.4329C0.0108321 20.0011 -0.484251 25.0277 0.480379 29.8773C1.44501 34.7268 3.82603 39.1813 7.32234 42.6777C10.8187 46.174 15.2732 48.555 20.1227 49.5196C24.9723 50.4843 29.9989 49.9892 34.5671 48.097C39.1352 46.2048 43.0397 43.0005 45.7867 38.8892C48.5338 34.778 50 29.9445 50 25C49.993 18.3717 47.3568 12.017 42.6699 7.33006C37.983 2.64317 31.6283 0.00699956 25 0ZM24.0385 11.5385C24.609 11.5385 25.1667 11.7076 25.6411 12.0246C26.1154 12.3416 26.4852 12.7921 26.7035 13.3192C26.9218 13.8463 26.979 14.4263 26.8677 14.9858C26.7564 15.5454 26.4816 16.0594 26.0782 16.4628C25.6748 16.8662 25.1608 17.141 24.6012 17.2523C24.0417 17.3636 23.4617 17.3064 22.9346 17.0881C22.4075 16.8698 21.957 16.5001 21.64 16.0257C21.323 15.5513 21.1539 14.9936 21.1539 14.4231C21.1539 13.658 21.4578 12.9243 21.9987 12.3833C22.5397 11.8424 23.2734 11.5385 24.0385 11.5385ZM26.9231 38.4615C25.903 38.4615 24.9247 38.0563 24.2034 37.335C23.4821 36.6137 23.0769 35.6354 23.0769 34.6154V25C22.5669 25 22.0778 24.7974 21.7171 24.4367C21.3565 24.0761 21.1539 23.5869 21.1539 23.0769C21.1539 22.5669 21.3565 22.0777 21.7171 21.7171C22.0778 21.3565 22.5669 21.1538 23.0769 21.1538C24.097 21.1538 25.0753 21.5591 25.7966 22.2804C26.5179 23.0016 26.9231 23.9799 26.9231 25V34.6154C27.4331 34.6154 27.9223 34.818 28.2829 35.1786C28.6436 35.5393 28.8462 36.0284 28.8462 36.5385C28.8462 37.0485 28.6436 37.5376 28.2829 37.8983C27.9223 38.2589 27.4331 38.4615 26.9231 38.4615Z" fill="black"/>
</svg>
