<svg width="165" height="219" viewBox="0 0 165 219" fill="none" xmlns="http://www.w3.org/2000/svg">
<path d="M71.8656 173.922C71.8656 173.922 23.4086 163.595 21.9787 162.801C20.5488 162.007 20.231 154.857 17.0535 154.698C13.876 154.539 14.1938 162.166 14.1938 162.166C14.1938 162.166 5.13785 155.334 2.43696 156.923C-0.263928 158.511 8.31536 166.455 8.31536 166.455C8.31536 166.455 0.848202 164.231 0.0538233 167.726C-0.740555 171.221 7.52098 175.034 7.52098 175.034C7.52098 175.034 -1.37606 174.717 0.371575 177.735C2.11921 180.754 8.31536 181.707 25.7917 185.52C43.268 189.333 73.7721 187.903 75.8375 185.679C77.9029 183.455 71.8656 173.922 71.8656 173.922Z" fill="white"/>
<path d="M17.0535 154.698C13.876 154.539 14.1938 162.166 14.1938 162.166C14.1938 162.166 5.13785 155.334 2.43696 156.923C-0.263928 158.511 8.31536 166.455 8.31536 166.455C8.31536 166.455 0.848202 164.231 0.0538233 167.726C-0.740555 171.221 7.52098 175.034 7.52098 175.034C7.52098 175.034 -1.37606 174.717 0.371575 177.735C2.07472 180.678 8.01032 181.66 24.5016 185.241C27.5298 179.575 28.5339 171.056 28.0859 164.348C24.5969 163.541 22.2774 162.966 21.9787 162.801C20.5488 162.007 20.231 154.857 17.0535 154.698Z" fill="#1FEAB3"/>
<path d="M50.1257 169.242C54.2724 172.407 59.3151 177.996 62.8231 187.662C69.8644 187.303 75.0343 186.553 75.8414 185.683C77.9067 183.459 71.8695 173.926 71.8695 173.926C71.8695 173.926 61.4472 171.705 50.1257 169.242Z" fill="#1CFCD2"/>
<path d="M111.828 196.865C111.828 196.865 110.293 194.853 107.221 195.54C104.148 196.229 106.639 198.663 108.546 199.671C110.452 200.678 111.405 200.996 111.405 200.996L111.828 196.865Z" fill="#F1FDFF"/>
<path d="M101.946 172.71C101.946 172.71 128.882 183.622 130.588 191.124C132.294 198.626 124.281 210.218 118.596 212.038C112.915 213.856 109.276 201.467 109.845 198.286C110.414 195.102 112.8 192.262 112.8 192.262C112.8 192.262 105.527 188.058 103.481 184.305C101.434 180.552 101.946 172.71 101.946 172.71Z" fill="#E7F3FF"/>
<path d="M112.467 177.489C106.772 174.668 101.946 172.71 101.946 172.71C101.946 172.71 101.434 180.552 103.481 184.305C104.497 186.17 106.811 188.15 108.879 189.669C109.96 184.75 111.275 180.219 112.467 177.492V177.489Z" fill="#1CFCD2"/>
<path d="M71.3659 172.771C71.3659 172.771 61.6205 208.524 67.1303 214.917C72.6369 221.31 106.319 219.89 109.709 212.785C113.099 205.68 102.083 169.218 102.083 169.218L71.3659 172.771Z" fill="#1BB68C"/>
<path d="M102.1 169.218L71.3831 172.771C71.3831 172.771 68.8634 182.017 67.1125 191.944C70.0517 195.83 74.6877 198.582 81.977 198.239C90.5785 197.838 99.0847 191.944 106.333 184.788C104.232 176.279 102.1 169.218 102.1 169.218Z" fill="#1FEAB3"/>
<path d="M102.111 169.218L71.3937 172.771C71.3937 172.771 70.774 175.043 69.9384 178.538C73.0078 181.093 77.1132 183.091 82.515 183.304C90.3888 183.616 98.4534 180.943 104.627 178.141C103.22 172.895 102.111 169.218 102.111 169.218Z" fill="#1FEAB3"/>
<path d="M156.683 129.832C149.34 122.18 132.842 116.95 133.189 121.751C133.189 121.751 124.619 155.417 125.483 157.864C126.347 160.311 142.067 158.642 148.593 157.321C155.12 156.002 164.026 137.483 156.683 129.832ZM22.7604 124.961C14.4734 131.579 20.8634 151.108 27.1612 153.276C33.4591 155.443 48.8192 159.167 49.998 156.853C51.1769 154.54 47.1128 120.042 47.1128 120.042C48.0883 115.33 31.0473 118.342 22.7604 124.961Z" fill="#1CFCD2"/>
<path d="M18.9757 132.47C17.8922 140.789 22.5504 151.678 27.1578 153.264C33.4557 155.431 48.8158 159.155 49.9946 156.842C50.4649 155.92 50.1027 149.88 49.4958 142.95C34.679 140.033 25.0829 136.331 18.9757 132.467V132.47Z" fill="#1BB68C"/>
<path d="M127.356 146.219C126.075 152.11 125.179 156.975 125.487 157.848C126.352 160.295 142.071 158.627 148.597 157.305C153.796 156.253 160.5 144.296 159.309 135.606C152.661 140.156 142.042 144.074 127.356 146.216V146.219Z" fill="#1BB68C"/>
<path d="M77.8132 177.318C56.0472 174.687 24.0878 160.175 35.5491 118.159C46.896 76.5555 120.281 74.4011 137.678 109.942C155.071 145.482 135.943 184.343 77.8132 177.318Z" fill="white"/>
<path d="M52.2592 101.223C46.7049 105.99 40.6136 114.416 38.1891 129.132C33.3117 158.708 65.3601 183.763 109.489 176.073C142.389 168.037 151.382 137.962 137.668 109.943C133.95 102.345 127.671 96.4731 119.991 92.3359C105.962 103.718 84.1805 117.804 65.7446 114.105C56.6727 112.284 52.99 107.296 52.2624 101.223H52.2592Z" fill="#E7FFF8"/>
<path d="M26.7879 118.536C37.7726 101.111 49.4722 105.413 62.9448 120.131C80.3195 139.114 101.421 100.701 127.588 108.641C153.755 116.582 151.883 155.945 125.755 165.522C99.6261 175.099 84.034 151.458 71.718 150.327C59.4019 149.196 53.2375 163.275 42.631 163.53C32.0245 163.784 12.3334 141.471 26.7911 118.536H26.7879Z" fill="#C8FFEE"/>
<path d="M89.4458 163.762C86.9673 164.804 84.4444 165.583 81.7308 165.672C80.5328 165.71 79.3222 165.643 78.1338 165.491C76.8851 165.329 75.6427 164.874 74.3812 164.881C73.7203 164.884 73.5105 165.627 73.984 166.037C75.9509 167.737 79.5288 167.864 81.9881 167.693C84.8352 167.499 87.7204 166.698 90.1067 165.094C90.8852 164.569 90.3482 163.378 89.4426 163.762H89.4458Z" fill="#1BB68C"/>
<path d="M89.2051 163.851C89.2019 164.388 89.3322 164.883 89.6309 165.331C89.8025 165.589 90.0535 165.798 90.2441 165.91C90.3871 165.995 90.7176 166.167 90.9781 166.199C91.5977 166.269 92.0521 165.411 91.5914 164.956C91.5151 164.883 91.4357 164.813 91.3531 164.747C91.3277 164.728 91.2037 164.632 91.2832 164.696C91.3976 164.791 91.2133 164.594 91.1593 164.527C91.1148 164.473 91.0671 164.419 91.0258 164.365C91.1084 164.477 90.9241 164.149 90.9464 164.21C90.9781 164.292 90.9178 164.092 90.9146 164.073C90.8637 163.911 90.9019 164.149 90.9019 163.968C90.9019 163.507 90.5905 163.094 90.1107 163.063C89.6722 163.034 89.2083 163.393 89.2051 163.854V163.851Z" fill="#1BB68C"/>
<path d="M137.506 141.136C141.027 120.089 129.413 109.86 116.141 107.846C95.1725 110.94 77.712 136.259 62.9493 120.127C57.6778 114.366 52.6764 110.203 47.8815 108.313C42.0794 109.72 36.4139 113.88 33.1061 123.568C26.5954 142.627 36.3853 157.03 47.7926 162.302C55.5552 158.854 61.5321 149.385 71.7192 150.323C81.6363 151.235 93.679 166.734 111.635 167.742C123.843 167.02 134.443 159.471 137.51 141.136H137.506Z" fill="#1BB68C"/>
<path d="M54.1383 123.367C46.4074 119.853 42.6642 145.219 51.9013 149.969C61.1415 154.72 62.3299 127.094 54.1383 123.367Z" fill="white"/>
<path d="M115.663 127.269C107.932 123.754 104.189 149.12 113.426 153.871C122.667 158.621 123.855 130.996 115.663 127.269Z" fill="white"/>
<path d="M36.5646 112.682C31.7666 114.277 31.6745 119.644 37.502 119.342C43.3296 119.04 42.0014 110.877 36.5646 112.682Z" fill="white"/>
<path d="M30.6818 122.994C31.3332 121.558 33.5448 122.003 31.6764 131.192C29.808 140.378 33.0999 152.507 37.9234 156.183C42.7437 159.86 17.8733 151.233 30.6818 122.994Z" fill="white"/>
<path d="M75.1986 98.9424C71.6144 99.6605 74.5631 97.0359 74.5631 92.2696C74.5631 87.5034 39.2927 58.1114 95.5347 19.5046C151.777 -19.1022 171.318 9.65426 162.421 20.6167C162.421 20.6167 155.272 3.29923 151.141 2.1871C147.01 1.07497 141.45 33.009 137.319 53.6628C133.188 74.3167 102.366 90.522 79.9649 92.4285C78.6939 92.4285 76.9462 93.5406 76.9462 95.4471C76.9462 97.3537 78.3761 98.3069 75.1986 98.9424Z" fill="#1FEAB3"/>
<path d="M78.7938 85.337C77.6976 88.0919 92.1394 26.4482 141.496 4.41528C115.227 20.9384 95.3169 43.8164 78.7938 85.337Z" fill="white"/>
<path d="M83.1474 32.8476C79.8046 35.7487 71.7083 53.3426 86.8015 46.9876C101.895 40.6325 97.605 20.2964 83.1474 32.8476Z" fill="#1CFCD2"/>
<path d="M84.0968 208.244C91.7744 208.244 97.9984 202.02 97.9984 194.343C97.9984 186.665 91.7744 180.441 84.0968 180.441C76.4191 180.441 70.1951 186.665 70.1951 194.343C70.1951 202.02 76.4191 208.244 84.0968 208.244Z" fill="#95FAE7"/>
<path d="M97.9953 194.346C97.9953 191.997 97.4107 189.789 96.3843 187.851C91.9644 193.154 82.9307 201.034 73.6874 199.827C72.7532 199.706 71.9048 199.547 71.1263 199.357C73.1376 204.555 78.1835 208.247 84.0937 208.247C91.7706 208.247 97.9953 202.023 97.9953 194.346Z" fill="#1CFCD2"/>
<path d="M82.185 204.188C88.2394 204.188 93.1474 199.28 93.1474 193.226C93.1474 187.171 88.2394 182.263 82.185 182.263C76.1306 182.263 71.2226 187.171 71.2226 193.226C71.2226 199.28 76.1306 204.188 82.185 204.188Z" fill="#DBF8FF"/>
<path d="M82.1849 202.679C87.4057 202.679 91.638 198.447 91.638 193.226C91.638 188.005 87.4057 183.773 82.1849 183.773C76.9641 183.773 72.7318 188.005 72.7318 193.226C72.7318 198.447 76.9641 202.679 82.1849 202.679Z" fill="#95FAE7"/>
<path d="M73.7677 194.141C73.7677 188.987 77.9461 184.805 83.1 184.805C85.7596 184.805 88.1555 185.918 89.8554 187.703C88.1396 185.323 85.3434 183.773 82.1849 183.773C76.9643 183.773 72.7318 188.005 72.7318 193.226C72.7318 196.384 74.2824 199.18 76.6624 200.896C74.8798 199.196 73.7645 196.797 73.7645 194.141H73.7677Z" fill="#1CFCD2"/>
<path d="M82.3307 197.907C84.0371 198.044 86.6744 197.323 88.1361 194.155C89.5945 190.987 88.8796 189.036 88.6254 189.023C88.368 189.01 82.7788 190.161 81.5427 192.715C80.3035 195.273 81.5141 197.138 81.5141 197.138C81.5141 197.138 84.4247 194.714 86.3344 191.902C88.2441 189.09 87.2082 191.959 85.8896 193.745C84.5709 195.531 82.3339 197.907 82.3339 197.907H82.3307Z" fill="white"/>
<path d="M80.6139 197.896C80.6139 197.896 81.1223 193.473 78.1101 191.659C75.1009 189.845 75.0628 189.771 75.4251 191.513C75.7873 193.254 75.2789 197.496 80.6108 197.896H80.6139Z" fill="white"/>
<path d="M125.242 206.727C123.767 200.508 116.526 194.331 111.381 194.353C110.759 195.431 110.11 196.822 109.847 198.29C109.278 201.474 112.916 213.86 118.598 212.043C120.695 211.372 123.113 209.364 125.239 206.727H125.242Z" fill="#1FEAB3"/>
<path d="M112.949 201.951C112.949 201.951 111.573 198.51 110.035 199.092C108.5 199.673 105.11 201.793 105.482 202.692C105.853 203.591 108.395 204.703 108.395 204.703C108.395 204.703 105.799 206.556 106.33 207.722C106.861 208.888 109.403 209.733 109.403 209.733C109.403 209.733 107.391 211.109 108.186 212.329C108.98 213.546 117.505 213.441 118.672 211.799C119.838 210.156 112.952 201.948 112.952 201.948L112.949 201.951Z" fill="#F1FDFF"/>
<path d="M112.801 192.26C112.801 192.26 110.415 195.1 109.846 198.284C109.77 198.713 109.77 199.314 109.84 200.022L110.787 203.375C110.787 203.375 110.733 200.461 112.639 195.536C114.546 190.61 119.576 189.975 119.735 189.711C119.894 189.448 116.503 188.812 112.798 192.26H112.801Z" fill="#F1FDFF"/>
</svg>
