<svg width="1920" height="2048" viewBox="0 0 1920 2048" fill="none" xmlns="http://www.w3.org/2000/svg">
<path d="M1408 1536H1395C1379.67 1461.33 1352.67 1392.67 1314 1330C1275.33 1267.33 1228.33 1213.33 1173 1168C1117.67 1122.67 1055.33 1087.33 986 1062C916.667 1036.67 844 1024 768 1024C709.333 1024 652.667 1031.67 598 1047C543.333 1062.33 492.333 1083.67 445 1111C397.667 1138.33 354.667 1171.67 316 1211C277.333 1250.33 244 1293.67 216 1341C188 1388.33 166.333 1439.33 151 1494C135.667 1548.67 128 1605.33 128 1664H0C0 1584 11.6667 1507 35 1433C58.3333 1359 92 1290.67 136 1228C180 1165.33 232 1109.67 292 1061C352 1012.33 420 974 496 946C420.667 896.667 362 834.667 320 760C278 685.333 256.667 602.667 256 512C256 441.333 269.333 375 296 313C322.667 251 359 196.667 405 150C451 103.333 505.333 66.6667 568 40C630.667 13.3333 697.333 0 768 0C838.667 0 905 13.3333 967 40C1029 66.6667 1083.33 103 1130 149C1176.67 195 1213.33 249.333 1240 312C1266.67 374.667 1280 441.333 1280 512C1280 556 1274.67 599 1264 641C1253.33 683 1237.33 722.667 1216 760C1194.67 797.333 1169.67 831.667 1141 863C1112.33 894.333 1078.67 922 1040 946C1114.67 974.667 1183.33 1014 1246 1064C1308.67 1114 1362.67 1172.67 1408 1240V1536ZM384 512C384 565.333 394 615 414 661C434 707 461.333 747.667 496 783C530.667 818.333 571.333 846 618 866C664.667 886 714.667 896 768 896C820.667 896 870.333 886 917 866C963.667 846 1004.33 818.667 1039 784C1073.67 749.333 1101.33 708.667 1122 662C1142.67 615.333 1152.67 565.333 1152 512C1152 459.333 1142 409.667 1122 363C1102 316.333 1074.67 275.667 1040 241C1005.33 206.333 964.333 178.667 917 158C869.667 137.333 820 127.333 768 128C714.667 128 665 138 619 158C573 178 532.333 205.333 497 240C461.667 274.667 434 315.667 414 363C394 410.333 384 460 384 512ZM1664 1664H1920V1792H1664V2048H1536V1792H1280V1664H1536V1408H1664V1664Z" fill="black"/>
</svg>
