<svg width="21" height="24" viewBox="0 0 21 24" fill="none" xmlns="http://www.w3.org/2000/svg">
<path d="M3.12846 9.48584H17.4956C18.6662 9.48584 19.624 10.3587 19.624 11.4255V19.9113C19.624 21.5115 18.1873 22.8207 16.4314 22.8207H4.19269C2.43671 22.8207 1 21.5115 1 19.9113V11.4255C1 10.3587 1.95781 9.48584 3.12846 9.48584Z" stroke="#02132F" stroke-width="1.5" stroke-miterlimit="10"/>
<path d="M4.99072 9.48583V5.84905C4.99072 3.16995 7.37194 1 10.3119 1C13.2518 1 15.633 3.16995 15.633 5.84905V9.48583" stroke="#02132F" stroke-width="1.5" stroke-miterlimit="10" stroke-linecap="round"/>
<path d="M10.3127 15.5474C10.6655 15.5474 11.0039 15.4197 11.2534 15.1923C11.5028 14.965 11.643 14.6566 11.643 14.3351C11.643 14.0136 11.5028 13.7053 11.2534 13.4779C11.0039 13.2506 10.6655 13.1229 10.3127 13.1229C9.9599 13.1229 9.62153 13.2506 9.37205 13.4779C9.12258 13.7053 8.98242 14.0136 8.98242 14.3351C8.98242 14.6566 9.12258 14.965 9.37205 15.1923C9.62153 15.4197 9.9599 15.5474 10.3127 15.5474Z" stroke="#02132F" stroke-width="1.5" stroke-miterlimit="10"/>
<path d="M10.312 19.1841V15.5473" stroke="#02132F" stroke-width="1.5" stroke-miterlimit="10" stroke-linecap="round"/>
</svg>
